<svg width="123.927490" height="30.557144" viewBox="0 0 123.927 30.5571" fill="none"
				xmlns="http://www.w3.org/2000/svg" xmlns:xlink="http://www.w3.org/1999/xlink">
				<defs />
				<path id="Vector"
					d="M0 29.45L0 11.07C0 10.7 0.29 10.4 0.65 10.4L4.27 10.4C4.64 10.4 4.93 10.7 4.93 11.07C4.93 11.44 5.29 11.66 5.58 11.44C6.96 10.48 8.55 10.03 10.15 10.03C12.61 10.03 14.86 11.14 16.31 12.76C16.46 12.91 16.75 12.99 16.96 12.76C18.49 11.29 20.81 9.96 23.49 9.96C26.17 9.96 28.71 11.21 30.31 13.13C31.54 14.68 32.26 16.68 32.26 19.63L32.26 29.37C32.26 29.74 31.97 30.04 31.54 30.04L27.7 30.04C27.33 30.04 26.97 29.74 26.97 29.37L26.97 19.41C26.97 17.64 26.61 16.68 26.03 16.01C25.23 15.13 24.07 14.76 23.13 14.76C21.02 14.76 19.28 16.16 18.56 17.19C18.49 17.27 18.49 17.41 18.49 17.49C18.56 18.08 18.63 18.82 18.63 19.55L18.63 29.3C18.63 29.67 18.34 29.96 17.91 29.96L14.06 29.96C13.7 29.96 13.34 29.67 13.34 29.3L13.34 19.41C13.34 17.64 12.98 16.68 12.4 16.01C11.6 15.13 10.44 14.76 9.49 14.76C7.39 14.76 5.87 16.16 5.07 17.04C5 17.12 5 17.19 5 17.34L5 29.3C5 29.67 4.71 29.96 4.35 29.96L0.65 29.96C0.29 30.11 0 29.81 0 29.45ZM39.95 0C41.84 0 43.36 1.47 43.36 3.39C43.36 5.31 41.84 6.79 39.95 6.79C38.07 6.79 36.54 5.31 36.54 3.39C36.61 1.47 38.14 0 39.95 0ZM41.91 30.11L38.07 30.11C37.7 30.11 37.34 29.81 37.34 29.45L37.34 12.62C37.34 11.14 38.5 9.96 39.95 9.96C41.4 9.96 42.56 11.14 42.56 12.62L42.56 29.45C42.56 29.81 42.27 30.11 41.91 30.11ZM56.48 15.5L59.75 10.7C59.89 10.55 60.11 10.4 60.33 10.4L64.53 10.4C65.11 10.4 65.4 11.07 65.11 11.51L59.53 19.33C59.46 19.48 59.46 19.7 59.53 19.85L65.98 29C66.27 29.45 65.98 30.11 65.4 30.11L60.91 30.11C60.69 30.11 60.47 30.04 60.33 29.81L56.34 23.98C56.19 23.76 55.83 23.76 55.69 23.98L51.7 29.81C51.55 29.96 51.34 30.11 51.12 30.11L46.62 30.11C46.04 30.11 45.75 29.45 46.04 29L52.5 19.85C52.57 19.7 52.57 19.48 52.5 19.33L47.13 11.44C46.84 10.99 47.13 10.33 47.71 10.33L51.99 10.33C52.21 10.33 52.42 10.4 52.57 10.62L55.83 15.42C55.98 15.72 56.27 15.72 56.48 15.5ZM72.36 30.48C70.91 30.48 69.75 29.3 69.75 27.82L69.75 1.91C69.75 1.55 70.04 1.25 70.41 1.25L74.25 1.25C74.61 1.25 74.9 1.55 74.9 1.91L74.9 27.9C74.9 29.3 73.81 30.48 72.36 30.48ZM104.49 30.11L108.11 30.11C108.48 30.11 108.77 29.81 108.77 29.45C108.77 29.08 109.13 28.85 109.42 29.08C110.87 30.11 112.47 30.55 114.13 30.55C117.03 30.55 119.72 29.22 121.46 27.23C122.98 25.46 123.92 23.02 123.92 20.29C123.92 14.54 119.72 10.03 114.42 10.03C112.61 10.03 111.02 10.48 109.64 11.36C109.35 11.58 108.99 11.36 108.99 10.99L108.99 1.91C108.99 1.55 108.69 1.25 108.33 1.25L104.49 1.25C104.13 1.25 103.84 1.55 103.84 1.91L103.84 29.45C103.84 29.81 104.13 30.11 104.49 30.11ZM113.77 14.9C116.67 14.9 119.06 17.27 119.06 20.29C119.06 23.25 116.67 25.68 113.77 25.68C110.87 25.68 108.48 23.25 108.48 20.29C108.55 17.27 110.94 14.9 113.77 14.9ZM98.47 10.4L94.84 10.4C94.48 10.4 94.19 10.7 94.19 11.07C94.19 11.44 93.83 11.66 93.54 11.44C92.09 10.48 90.42 9.96 88.54 9.96C83.24 9.96 79.04 14.39 79.04 20.22C79.04 22.95 79.98 25.39 81.5 27.16C83.24 29.22 85.92 30.48 88.83 30.48C90.57 30.48 92.09 30.04 93.54 29C93.83 28.78 94.19 29 94.19 29.37L94.19 29.45C94.19 29.81 94.48 30.11 94.84 30.11L98.47 30.11C98.83 30.11 99.12 29.81 99.12 29.45L99.12 11.07C99.2 10.7 98.83 10.4 98.47 10.4ZM89.12 25.61C86.21 25.61 83.82 23.17 83.82 20.22C83.82 17.19 86.21 14.83 89.12 14.83C92.02 14.83 94.41 17.19 94.41 20.22C94.48 23.25 92.09 25.61 89.12 25.61Z"
					fill="#F5A61C" fill-opacity="1.000000" fill-rule="nonzero" />
			</svg>